<?xml version="1.0" encoding="UTF-8" standalone="no"?>
<!-- Created with Inkscape (http://www.inkscape.org/) -->

<svg
   width="38"
   height="46"
   viewBox="0 0 10.054167 12.170834"
   version="1.1"
   id="svg936"
   inkscape:version="1.4 (e7c3feb100, 2024-10-09)"
   sodipodi:docname="_port_view_nxt_ultrasonic.svg"
   xmlns:inkscape="http://www.inkscape.org/namespaces/inkscape"
   xmlns:sodipodi="http://sodipodi.sourceforge.net/DTD/sodipodi-0.dtd"
   xmlns="http://www.w3.org/2000/svg"
   xmlns:svg="http://www.w3.org/2000/svg">
  <sodipodi:namedview
     id="namedview938"
     pagecolor="#ffffff"
     bordercolor="#666666"
     borderopacity="1.0"
     inkscape:pageshadow="2"
     inkscape:pageopacity="0.0"
     inkscape:pagecheckerboard="0"
     inkscape:document-units="px"
     showgrid="true"
     units="px"
     inkscape:zoom="12.48"
     inkscape:cx="18.509615"
     inkscape:cy="27.24359"
     inkscape:window-width="1280"
     inkscape:window-height="970"
     inkscape:window-x="0"
     inkscape:window-y="0"
     inkscape:window-maximized="1"
     inkscape:current-layer="layer1"
     inkscape:lockguides="true"
     inkscape:showpageshadow="2"
     inkscape:deskcolor="#d1d1d1"
     showguides="true">
    <inkscape:grid
       type="xygrid"
       id="grid1103"
       originx="0"
       originy="0"
       spacingy="1"
       spacingx="1"
       units="px" />
  </sodipodi:namedview>
  <defs
     id="defs933">
    <clipPath
       clipPathUnits="userSpaceOnUse"
       id="clipPath12">
      <path
         id="path13"
         style="fill:#ff0000;fill-opacity:1;fill-rule:nonzero;stroke:none;stroke-width:0.264583"
         d="m 0.26458333,3.9336099 v 2.0737753 c 0.0455379,0.016679 0.093816,0.056484 0.1374593,0.1250569 0.0385569,-0.057933 0.0902186,-0.081374 0.13952638,-0.080098 0.10986683,0.00284 0.20846844,0.1273006 0.12660725,0.2604493 -0.0224385,0.036496 -0.0287887,0.075291 -0.0294556,0.1173054 -0.0130876,0.07693 -0.0270468,0.1537266 -0.054777,0.2268595 -0.011929,0.066953 -0.007602,0.1358874 -0.007235,0.2036054 0.001172,0.1331661 0.001804,0.2662875 0.002066,0.3994586 9.051e-5,0.058055 7.588e-5,0.1166114 0,0.1746663 -3.749e-5,0.063528 -3.86e-6,0.1266415 0,0.1901693 5.19e-6,0.1004091 1.1e-7,0.2008645 0,0.3012736 0.008168,0.1048991 0.0264855,0.2078577 0.0645955,0.3059245 0.01983,0.062444 0.0407962,0.1241417 0.0609782,0.1865519 0.0136067,0.044567 0.0221419,0.090399 0.0341064,0.1353923 0.0102904,0.038697 0.008802,0.073085 -5.1594e-4,0.1023194 0.006773,0.00901 0.0147754,0.017021 0.0211873,0.026355 0.0413973,0.067306 0.0606735,0.1441796 0.0862997,0.2180746 0.007876,0.022704 0.015481,0.045652 0.0227375,0.06873 0.10301243,0.012269 0.20779928,0.00596 0.31109208,0.017052 0.1217087,0.012136 0.2354084,0.029326 0.3209106,0.1260904 0.00786,0.023921 0.019839,0.047003 0.027905,0.070797 0.1027625,-0.00917 0.2058728,-0.011589 0.3090251,-0.01447 0.094538,-0.00249 0.1897138,-0.00935 0.2831868,-0.024289 0.063048,-0.00954 0.1264543,-0.017552 0.1896525,-0.025839 0.0011,-4.762e-4 0.00199,-0.00106 0.0031,-0.00156 0.032516,-0.00579 0.064722,-0.014703 0.097669,-0.017052 0.010604,-7.673e-4 0.023176,-3.175e-4 0.03669,0.00103 0.090189,-0.00954 0.1808749,-0.013986 0.2713014,-0.013436 0.1024702,6.086e-4 0.2044938,0.00777 0.3064412,0.020153 0.1530686,0.032303 0.3001627,0.086347 0.4464844,0.1415934 -0.0019,-0.0056 -0.00429,-0.011147 -0.00672,-0.016536 C 3.4503044,9.210473 3.4369124,9.195494 3.4116744,9.18392 3.1766114,9.0761211 3.2285139,8.8638568 3.4106444,8.8609424 c 0.042021,-6.615e-4 0.09072,0.010194 0.144694,0.035657 0.070063,0.033053 0.1233487,0.085866 0.1694987,0.1467612 0.022714,0.032754 0.03917,0.067754 0.05116,0.1043863 0.029614,-0.014923 0.059301,-0.029372 0.090434,-0.041341 0.061416,-0.017433 0.1162807,-0.012854 0.1607138,0.00878 0.095352,-0.00874 0.1911884,-0.00878 0.2868044,-0.00517 0.1763487,0.012547 0.3494349,0.050904 0.5224486,0.0863 0.00297,-5.292e-4 0.00575,-0.00106 0.00878,-0.00156 0.081,-0.0128 0.1631157,-0.018608 0.2449463,-0.022738 0.065183,-0.00273 0.1301297,-0.00489 0.1953371,-0.00568 0.065207,-7.938e-4 0.1306383,-1.513e-4 0.1958536,0.00156 0.1887056,0.00826 0.3770243,0.014592 0.5658569,0.019122 0.1721626,0.00388 0.3445653,0.00558 0.5167644,0.00672 0.1357108,8.203e-4 0.2714974,0.00135 0.4072101,0.00156 0.037154,3.81e-5 0.045657,1.48e-5 0.055811,0 0.026143,-0.074538 0.094089,-0.1299898 0.1545124,-0.1762165 0.068188,-0.053595 0.14526,-0.086483 0.2284098,-0.1090374 0.066552,-0.015761 0.1351005,-0.020272 0.2030883,-0.025321 0.083851,-0.00623 0.1466789,0.011848 0.1886191,0.041858 0.028428,-0.010335 0.054745,-0.015748 0.078548,-0.016536 0.1313421,-0.00435 0.1840373,0.1259832 0.075448,0.2640666 0.038884,-0.012081 0.077674,-0.0244 0.1173054,-0.034106 0.096551,-0.025416 0.1947608,-0.032642 0.2940388,-0.028422 0.1257748,0.015468 0.2445206,0.056541 0.3632854,0.098185 0.00495,-0.00106 0.00955,-0.003 0.01447,-0.00414 C 8.6763908,9.126792 8.7176557,8.9896175 8.9074683,8.9395025 l 0.03514,-0.0093 c 0.074474,-0.019815 0.1487168,-0.043758 0.2253094,-0.05271 0.00552,-0.021527 0.011036,-0.043076 0.016537,-0.064595 0.021085,-0.092867 0.030751,-0.1869064 0.053226,-0.2795696 0.027081,-0.079196 0.043421,-0.1724752 0.096635,-0.2402953 0.0059,-0.00751 0.012941,-0.013941 0.019637,-0.020672 -0.011721,-0.00716 -0.023849,-0.014415 -0.037207,-0.02222 -0.00816,-0.00477 0.00834,-0.091335 0.011369,-0.1059368 0.00689,-0.061082 0.025188,-0.1197499 0.039274,-0.1793172 0.013719,-0.066607 0.013052,-0.1353214 0.015502,-0.2030886 0.00161,-0.044337 9.79e-4,-0.024609 0.00259,-0.060461 0.00369,-0.08231 0.028322,-0.1411028 0.062012,-0.1788007 -0.017664,-0.080217 -0.026445,-0.1618403 -0.028939,-0.2439125 0,-0.064331 0.00169,-0.1289388 0.00206,-0.1932699 -0.00835,-0.074754 0.016857,-0.1976168 -0.00878,-0.2635499 -0.025556,-0.077836 -0.071324,-0.1460756 -0.1059368,-0.2196248 -0.00387,-0.030813 -0.016973,-0.062022 -0.013435,-0.092501 -0.044181,-0.028162 -0.075488,-0.078397 -0.071313,-0.1503786 0.00475,-0.082021 0.017677,-0.1604663 0.063045,-0.2315104 0.020317,-0.022429 0.034898,-0.051827 0.060978,-0.067179 0.052986,-0.03119 0.097509,-0.043123 0.1390098,-0.041858 0.05084,0.00156 0.096764,0.022802 0.1472779,0.051676 0.032257,-0.078246 0.081583,-0.123645 0.1317749,-0.1364257 V 3.9336051 Z m 0,4.6989381 V 9.4898599 H 1.0924398 c -0.00226,-0.00257 -0.00366,-0.00558 -0.00568,-0.00827 -0.07962,0.010906 -0.15949061,0.012502 -0.23771163,-0.012401 C 0.74975585,9.4265985 0.68416792,9.3694713 0.63975422,9.2697184 0.63035199,9.2501471 0.62174562,9.2302846 0.61339934,9.2102906 0.58465688,9.1906849 0.56345024,9.1720715 0.5312338,9.1580973 0.41127915,9.1151419 0.29889603,9.0492871 0.27440194,8.9121176 c -0.004967,-0.027816 6.4029e-4,-0.056493 0.001035,-0.08475 l 0.0139516,-0.056844 c 0.007666,-0.031726 0.0191355,-0.058481 0.0330729,-0.081132 -0.019635,-0.018611 -0.0388084,-0.03769 -0.0578781,-0.056844 z M 9.7632285,8.8924805 C 9.7262754,8.9565245 9.6760075,8.9891865 9.6278361,8.9942829 9.5885,9.089853 9.5252376,9.169927 9.4464518,9.2397461 c -0.026564,0.023289 -0.055127,0.043391 -0.084233,0.062528 -0.00357,0.00683 -0.00664,0.013883 -0.010335,0.020672 -0.02831,0.05749 -0.055202,0.1172668 -0.093534,0.1669148 H 9.763229 Z M 7.2879273,9.1911702 c 0.00527,0.00755 0.016671,0.013301 0.030489,0.018603 -0.022609,-0.020923 -0.011073,-0.018452 -0.030489,-0.018603 z m 0.2253091,0.026872 c -0.00724,0.00116 -0.014507,0.00167 -0.021704,0.0031 -0.014356,0.00357 -0.026761,0.00831 -0.039791,0.01292 0.023498,0.00214 0.033968,0.00315 0.054777,0.00465 0.00188,-0.00667 0.00414,-0.013801 0.00672,-0.020672 z" />
    </clipPath>
  </defs>
  <g
     inkscape:label="Layer 1"
     inkscape:groupmode="layer"
     id="layer1">
    <circle
       style="fill:#000000;stroke-width:0.241924"
       id="path2"
       cx="2.2489579"
       cy="6.21771"
       r="0.66145837" />
    <circle
       style="fill:#000000;stroke-width:0.236722"
       id="path3"
       cx="7.8052087"
       cy="6.2177072"
       r="0.66145831" />
    <rect
       style="fill:none;stroke:#000000;stroke-width:0.26929;stroke-dasharray:none;stroke-opacity:1"
       id="rect3"
       width="8.7265434"
       height="3.1702936"
       x="0.66381109"
       y="4.6325631"
       rx="0.81811374"
       ry="0.63405854" />
    <ellipse
       style="fill:none;stroke:#000000;stroke-width:0.264435;stroke-dasharray:none;stroke-opacity:1"
       id="path4"
       cy="6.2177091"
       cx="2.2489588"
       rx="1.1906997"
       ry="1.1906995" />
    <ellipse
       style="fill:none;stroke:#000000;stroke-width:0.264435;stroke-dasharray:none;stroke-opacity:1"
       id="path5"
       cx="7.8052092"
       cy="6.2177091"
       rx="1.1906997"
       ry="1.1906995" />
    <rect
       style="fill:#000000;fill-opacity:1;stroke:#000000;stroke-width:0.262403;stroke-dasharray:none;stroke-opacity:1"
       id="rect5"
       width="2.383431"
       height="1.3250971"
       x="3.8353682"
       y="7.539535"
       rx="0.25807679"
       ry="0.2659646" />
    <rect
       style="fill:none;fill-opacity:1;stroke:#000000;stroke-width:0.264225;stroke-dasharray:none;stroke-opacity:1"
       id="rect14"
       width="9.2339239"
       height="5.2916322"
       x="0.39689261"
       y="4.0658698"
       rx="1.0553055"
       ry="1.0583264"
       clip-path="url(#clipPath12)"
       transform="matrix(1.0028256,0,0,1.0000742,-9.3820117e-4,0.03469428)" />
  </g>
</svg>
