<?xml version="1.0" encoding="UTF-8" standalone="no"?>
<!-- Created with Inkscape (http://www.inkscape.org/) -->

<svg
   width="18"
   height="15"
   viewBox="0 0 4.7624999 3.9687502"
   version="1.1"
   id="svg936"
   inkscape:version="1.1.2 (0a00cf5339, 2022-02-04)"
   sodipodi:docname="ccw18.svg"
   xmlns:inkscape="http://www.inkscape.org/namespaces/inkscape"
   xmlns:sodipodi="http://sodipodi.sourceforge.net/DTD/sodipodi-0.dtd"
   xmlns="http://www.w3.org/2000/svg"
   xmlns:svg="http://www.w3.org/2000/svg">
  <sodipodi:namedview
     id="namedview938"
     pagecolor="#ffffff"
     bordercolor="#666666"
     borderopacity="1.0"
     inkscape:pageshadow="2"
     inkscape:pageopacity="0.0"
     inkscape:pagecheckerboard="0"
     inkscape:document-units="mm"
     showgrid="true"
     units="px"
     inkscape:zoom="19.654501"
     inkscape:cx="5.9528349"
     inkscape:cy="9.183647"
     inkscape:window-width="1860"
     inkscape:window-height="1136"
     inkscape:window-x="60"
     inkscape:window-y="27"
     inkscape:window-maximized="1"
     inkscape:current-layer="layer1"
     inkscape:snap-global="true">
    <inkscape:grid
       type="xygrid"
       id="grid1103" />
  </sodipodi:namedview>
  <defs
     id="defs933" />
  <g
     inkscape:label="Layer 1"
     inkscape:groupmode="layer"
     id="layer1">
    <rect
       style="fill:#000000;fill-opacity:0.963106;stroke-width:0.0272165;stroke-linecap:round;stop-color:#000000"
       id="rect848"
       width="0.26458332"
       height="1.3229169"
       x="2.3812501"
       y="0.52916634"
       transform="matrix(0,1,1,0,0,0)" />
    <rect
       style="fill:#000000;fill-opacity:0.963106;stroke-width:0.0272166;stroke-linecap:round;stop-color:#000000"
       id="rect850"
       width="0.26458332"
       height="0.5291667"
       x="3.4395835"
       y="3.4395831"
       transform="matrix(0,1,1,0,0,0)" />
    <rect
       style="fill:#000000;fill-opacity:0.963106;stroke-width:0.0272165;stroke-linecap:round;stop-color:#000000"
       id="rect1327"
       width="0.26458332"
       height="0.26458332"
       x="3.1750002"
       y="3.96875"
       transform="matrix(0,1,1,0,0,0)" />
    <rect
       style="fill:#000000;fill-opacity:0.963106;stroke-width:0.0272165;stroke-linecap:round;stop-color:#000000"
       id="rect1329"
       width="0.26458332"
       height="0.26458332"
       x="2.9104168"
       y="4.2333331"
       transform="matrix(0,1,1,0,0,0)" />
    <rect
       style="fill:#000000;fill-opacity:0.963106;stroke-width:0.0272165;stroke-linecap:round;stop-color:#000000"
       id="rect1671"
       width="0.26458332"
       height="0.26458332"
       x="2.6458335"
       y="4.2333331"
       transform="matrix(0,1,1,0,0,0)" />
    <rect
       style="fill:#000000;fill-opacity:0.963106;stroke-width:0.0272165;stroke-linecap:round;stop-color:#000000"
       id="rect1673"
       width="0.26458332"
       height="0.26458332"
       x="3.7041669"
       y="3.175"
       transform="matrix(0,1,1,0,0,0)" />
    <rect
       style="fill:#000000;fill-opacity:0.963106;stroke-width:0.0272165;stroke-linecap:round;stop-color:#000000"
       id="rect1675"
       width="0.26458335"
       height="0.79374981"
       x="3.7041671"
       y="2.6458333"
       transform="matrix(0,1,1,0,0,0)" />
    <rect
       style="fill:#000000;fill-opacity:0.963106;stroke-width:0.0272166;stroke-linecap:round;stop-color:#000000"
       id="rect850-5"
       width="0.26458332"
       height="0.79375011"
       x="-0.26458332"
       y="-2.3812499"
       transform="matrix(0,-1,-1,0,0,0)" />
    <rect
       style="fill:#000000;fill-opacity:0.963106;stroke-width:0.0272165;stroke-linecap:round;stop-color:#000000"
       id="rect1327-6"
       width="0.26458332"
       height="0.26458332"
       x="-0.52916723"
       y="-1.5874989"
       transform="matrix(0,-1,-1,0,0,0)" />
    <rect
       style="fill:#000000;fill-opacity:0.963106;stroke-width:0.0272165;stroke-linecap:round;stop-color:#000000"
       id="rect1671-2"
       width="0.52916664"
       height="0.26458332"
       x="-1.0583333"
       y="-1.3229159"
       transform="matrix(0,-1,-1,0,0,0)" />
    <rect
       style="fill:#000000;fill-opacity:0.963106;stroke-width:0.0272166;stroke-linecap:round;stop-color:#000000"
       id="rect850-5-2"
       width="0.26458332"
       height="0.5291667"
       x="-0.529167"
       y="3.4395833"
       transform="rotate(-90)" />
    <rect
       style="fill:#000000;fill-opacity:0.963106;stroke-width:0.0272165;stroke-linecap:round;stop-color:#000000"
       id="rect1327-6-7"
       width="0.26458332"
       height="0.26458332"
       x="-0.79375088"
       y="3.96875"
       transform="rotate(-90)" />
    <rect
       style="fill:#000000;fill-opacity:0.963106;stroke-width:0.0272165;stroke-linecap:round;stop-color:#000000"
       id="rect1671-2-0"
       width="0.52916664"
       height="0.26458332"
       x="-1.322917"
       y="4.2333331"
       transform="rotate(-90)" />
    <rect
       style="fill:#000000;fill-opacity:0.963106;stroke-width:0.0272166;stroke-linecap:round;stop-color:#000000"
       id="rect1675-9"
       width="0.26458335"
       height="1.8520834"
       x="-0.52916664"
       y="-3.4395833"
       transform="matrix(0,-1,-1,0,0,0)" />
    <rect
       style="fill:#000000;fill-opacity:0.963106;stroke-width:0.0272165;stroke-linecap:round;stop-color:#000000"
       id="rect2077-1"
       width="0.52916664"
       height="2.1166663"
       x="-1.3229166"
       y="0.79374999"
       transform="scale(-1,1)" />
    <rect
       style="fill:#000000;fill-opacity:0.963106;stroke-width:0.0272166;stroke-linecap:round;stop-color:#000000"
       id="rect2077"
       width="0.26458332"
       height="1.3229166"
       x="4.4979162"
       y="-2.6458335"
       transform="scale(1,-1)" />
    <rect
       style="fill:#000000;fill-opacity:0.963106;stroke-width:0.0272164;stroke-linecap:round;stop-color:#000000"
       id="rect2681"
       width="0.26458332"
       height="1.8520833"
       x="2.1166666"
       y="0.26458311"
       transform="matrix(0,1,1,0,0,0)" />
    <rect
       style="fill:#000000;fill-opacity:0.963106;stroke-width:0.0272165;stroke-linecap:round;stop-color:#000000"
       id="rect2683"
       width="0.26458332"
       height="2.3812497"
       x="1.8520834"
       y="0"
       transform="matrix(0,1,1,0,0,0)" />
    <rect
       style="fill:#000000;fill-opacity:0.963106;stroke-width:0.0272166;stroke-linecap:round;stop-color:#000000"
       id="rect1354"
       width="0.26458332"
       height="1.3229166"
       x="4.2333331"
       y="-2.6458335"
       transform="scale(1,-1)" />
    <rect
       style="fill:#000000;fill-opacity:0.963106;stroke-width:0.0272165;stroke-linecap:round;stop-color:#000000"
       id="rect1438"
       width="0.52916664"
       height="0.26458332"
       x="-1.3229166"
       y="3.96875"
       transform="rotate(-90)" />
    <rect
       style="fill:#000000;fill-opacity:0.963106;stroke-width:0.0272166;stroke-linecap:round;stop-color:#000000"
       id="rect1440"
       width="0.26458332"
       height="0.5291667"
       x="-0.79374999"
       y="3.4395833"
       transform="rotate(-90)" />
    <rect
       style="fill:#000000;fill-opacity:0.963106;stroke-width:0.0272165;stroke-linecap:round;stop-color:#000000"
       id="rect1442"
       width="0.26458335"
       height="1.3229166"
       x="-0.26458335"
       y="-3.4395833"
       transform="matrix(0,-1,-1,0,0,0)" />
    <rect
       style="fill:#000000;fill-opacity:0.963106;stroke-width:0.0272165;stroke-linecap:round;stop-color:#000000"
       id="rect1444"
       width="0.52916664"
       height="0.26458332"
       x="-3.175"
       y="3.96875"
       transform="rotate(-90)" />
    <rect
       style="fill:#000000;fill-opacity:0.963106;stroke-width:0.0272165;stroke-linecap:round;stop-color:#000000"
       id="rect1446"
       width="0.52916664"
       height="0.26458332"
       x="-3.7041667"
       y="3.7041667"
       transform="rotate(-90)" />
    <rect
       style="fill:#000000;fill-opacity:0.963106;stroke-width:0.0272166;stroke-linecap:round;stop-color:#000000"
       id="rect1448"
       width="0.26458332"
       height="0.5291667"
       x="3.175"
       y="3.4395833"
       transform="matrix(0,1,1,0,0,0)" />
    <rect
       style="fill:#000000;fill-opacity:0.963106;stroke-width:0.0272165;stroke-linecap:round;stop-color:#000000"
       id="rect1450"
       width="0.26458335"
       height="0.79375005"
       x="3.4395833"
       y="2.6458333"
       transform="matrix(0,1,1,0,0,0)" />
    <rect
       style="fill:#000000;fill-opacity:0.963106;stroke-width:0.0272165;stroke-linecap:round;stop-color:#000000"
       id="rect1452"
       width="0.52916664"
       height="0.26458332"
       x="-1.0583333"
       y="-1.5874989"
       transform="matrix(0,-1,-1,0,0,0)" />
    <rect
       style="fill:#000000;fill-opacity:0.963106;stroke-width:0.0272165;stroke-linecap:round;stop-color:#000000"
       id="rect1454"
       width="0.52916664"
       height="0.26458332"
       x="-1.5875"
       y="-1.0583333"
       transform="matrix(0,-1,-1,0,0,0)" />
    <rect
       style="fill:#000000;fill-opacity:0.963106;stroke-width:0.0272166;stroke-linecap:round;stop-color:#000000"
       id="rect1456"
       width="0.26458332"
       height="1.8520833"
       x="-1.3229166"
       y="0.52916664"
       transform="scale(-1,1)" />
    <rect
       style="fill:#000000;fill-opacity:0.963106;stroke-width:0.0272165;stroke-linecap:round;stop-color:#000000"
       id="rect1458"
       width="0.52916664"
       height="0.26458332"
       x="-0.79374999"
       y="1.5874999"
       transform="rotate(-90)" />
    <rect
       style="fill:#000000;fill-opacity:0.963106;stroke-width:0.0272165;stroke-linecap:round;stop-color:#000000"
       id="rect1846"
       width="0.26458335"
       height="0.79375005"
       x="2.6458333"
       y="0.79374993"
       transform="matrix(0,1,1,0,0,0)" />
    <rect
       style="fill:#000000;fill-opacity:0.963106;stroke-width:0.0272165;stroke-linecap:round;stop-color:#000000"
       id="rect1848"
       width="0.26458335"
       height="0.79375005"
       x="1.0583333"
       y="-3.175"
       transform="scale(1,-1)" />
  </g>
</svg>
